<?xml version="1.0" standalone="no"?>
<!DOCTYPE svg PUBLIC "-//W3C//DTD SVG 20010904//EN"
 "http://www.w3.org/TR/2001/REC-SVG-20010904/DTD/svg10.dtd">
<svg version="1.0" xmlns="http://www.w3.org/2000/svg"
 width="512.000000pt" height="512.000000pt" viewBox="0 0 512.000000 512.000000"
 preserveAspectRatio="xMidYMid meet">
<metadata>
Created by potrace 1.14, written by Peter Selinger 2001-2017
</metadata>
<g transform="translate(0.000000,512.000000) scale(0.100000,-0.100000)"
fill="#000000" stroke="none">
<path d="M757 5110 c-343 -59 -617 -303 -724 -645 l-28 -90 0 -1815 0 -1815
28 -90 c97 -308 314 -525 622 -622 l90 -28 1815 0 1815 0 90 28 c308 97 525
314 622 622 l28 90 0 1815 0 1815 -28 90 c-97 308 -314 525 -622 622 l-90 28
-1785 1 c-982 1 -1807 -2 -1833 -6z m3660 -283 c93 -31 212 -106 268 -168 61
-67 114 -157 143 -243 l27 -81 0 -1775 0 -1775 -27 -81 c-29 -86 -82 -176
-143 -243 -56 -62 -175 -137 -268 -168 l-82 -28 -1775 0 -1775 0 -81 27 c-86
29 -176 82 -243 143 -62 56 -137 175 -168 268 l-28 82 0 1775 0 1775 27 81
c77 224 248 377 483 429 49 11 385 13 1810 12 l1750 -2 82 -28z"/>
<path d="M2550 4230 c-259 -12 -362 -42 -420 -121 -22 -30 -150 -402 -514
-1497 -444 -1333 -486 -1463 -486 -1523 0 -83 24 -124 95 -159 48 -24 58 -25
278 -28 l227 -4 14 34 c7 18 65 207 127 420 l114 388 562 0 562 0 11 -37 c5
-21 61 -209 124 -418 l114 -380 258 0 c256 0 259 0 308 25 76 38 91 65 91 163
0 80 -6 101 -229 782 -125 385 -338 1035 -471 1445 -134 410 -248 757 -254
772 -5 15 -26 45 -45 66 -63 70 -167 86 -466 72z m30 -582 c16 -62 116 -403
224 -756 108 -354 196 -648 196 -653 0 -5 -185 -9 -445 -9 -334 0 -445 3 -445
12 0 6 88 308 196 671 107 363 205 704 217 758 12 54 23 96 25 94 2 -2 17 -55
32 -117z"/>
</g>
</svg>
